<svg width="16" height="16" viewBox="0 0 16 16" fill="none" xmlns="http://www.w3.org/2000/svg">
<path d="M12.6663 6.51853V10.2222C12.6663 11.401 12.1747 12.5314 11.2995 13.3649C10.4243 14.1984 9.23735 14.6667 7.99967 14.6667C6.762 14.6667 5.57501 14.1984 4.69984 13.3649C3.82467 12.5314 3.33301 11.401 3.33301 10.2222V4.29631C3.33301 3.51048 3.66078 2.75684 4.24423 2.20118C4.82768 1.64551 5.619 1.33334 6.44412 1.33334V1.33334C7.26924 1.33334 8.06056 1.64551 8.64401 2.20118C9.22745 2.75684 9.55523 3.51048 9.55523 4.29631V10.2222C9.55523 10.6151 9.39134 10.992 9.09962 11.2698C8.80789 11.5476 8.41223 11.7037 7.99967 11.7037C7.58712 11.7037 7.19145 11.5476 6.89973 11.2698C6.60801 10.992 6.44412 10.6151 6.44412 10.2222V4.29631" stroke="#7E8CA0" stroke-width="1.5" stroke-linecap="round" stroke-linejoin="round"/>
</svg>
