<svg width="16" height="16" viewBox="0 0 16 16" fill="none" xmlns="http://www.w3.org/2000/svg">
<g clip-path="url(#clip0_501_4263)">
<path fill-rule="evenodd" clip-rule="evenodd" d="M8 1.75C4.54822 1.75 1.75 4.54822 1.75 8C1.75 11.4518 4.54822 14.25 8 14.25C11.4518 14.25 14.25 11.4518 14.25 8C14.25 4.54822 11.4518 1.75 8 1.75ZM0.25 8C0.25 3.71979 3.71979 0.25 8 0.25C12.2802 0.25 15.75 3.71979 15.75 8C15.75 12.2802 12.2802 15.75 8 15.75C3.71979 15.75 0.25 12.2802 0.25 8Z" fill="#1D1E25"/>
<path d="M10.0513 5.31623C10.4422 5.18593 10.8141 5.5578 10.6838 5.94868L9.04031 10.8791C8.90061 11.2982 8.32579 11.3434 8.12221 10.9513L6.96631 8.72499C6.91295 8.62221 6.82557 8.54114 6.71908 8.49563L5.21097 7.85097C4.788 7.67017 4.813 7.06233 5.24938 6.91687L10.0513 5.31623Z" stroke="black" stroke-width="1.5" stroke-linecap="round" stroke-linejoin="round"/>
</g>
<defs>
<clipPath id="clip0_501_4263">
<rect width="16" height="16" fill="white"/>
</clipPath>
</defs>
</svg>
