<svg width="16" height="16" viewBox="0 0 16 16" fill="none" xmlns="http://www.w3.org/2000/svg">
<path d="M13.3333 3.33333H2.66667C2.29848 3.33333 2 3.03486 2 2.66667C2 2.29848 2.29848 2 2.66667 2H13.3333C13.7015 2 14 2.29848 14 2.66667C14 3.03486 13.7015 3.33333 13.3333 3.33333Z" fill="#7E8CA0"/>
<path d="M13.3333 6.66667H2.66667C2.29848 6.66667 2 6.36819 2 6C2 5.63181 2.29848 5.33333 2.66667 5.33333H13.3333C13.7015 5.33333 14 5.63181 14 6C14 6.36819 13.7015 6.66667 13.3333 6.66667Z" fill="#7E8CA0"/>
<path d="M2.66667 10H13.3333C13.7015 10 14 9.70152 14 9.33333C14 8.96514 13.7015 8.66667 13.3333 8.66667H2.66667C2.29848 8.66667 2 8.96514 2 9.33333C2 9.70152 2.29848 10 2.66667 10Z" fill="#7E8CA0"/>
<path d="M9.33333 13.3333H2.66667C2.29848 13.3333 2 13.0349 2 12.6667C2 12.2985 2.29848 12 2.66667 12H9.33333C9.70152 12 10 12.2985 10 12.6667C10 13.0349 9.70152 13.3333 9.33333 13.3333Z" fill="#7E8CA0"/>
</svg>
