<svg width="162" height="114" viewBox="0 0 162 114" fill="none" xmlns="http://www.w3.org/2000/svg">
<path d="M2.93975 103V78.15H17.9897V81.825H7.13975V88.335H16.9397V92.01H7.13975V99.325H18.3397V103H2.93975ZM26.9837 103L19.9837 84.695H24.3937L29.0837 98.8L33.8087 84.695H38.0787L31.0787 103H26.9837ZM48.694 103.525C47.3407 103.525 46.0924 103.292 44.949 102.825C43.829 102.335 42.849 101.658 42.009 100.795C41.169 99.9317 40.5157 98.9167 40.049 97.75C39.6057 96.56 39.384 95.2533 39.384 93.83C39.384 92.4533 39.6057 91.1817 40.049 90.015C40.5157 88.8483 41.1457 87.8333 41.939 86.97C42.7557 86.0833 43.7124 85.395 44.809 84.905C45.9057 84.415 47.0957 84.17 48.379 84.17C49.6624 84.17 50.829 84.4033 51.879 84.87C52.9524 85.3133 53.874 85.955 54.644 86.795C55.4374 87.635 56.044 88.6383 56.464 89.805C56.884 90.9483 57.094 92.22 57.094 93.62V94.81H43.549C43.6657 95.8833 43.9457 96.8167 44.389 97.61C44.8557 98.38 45.4507 98.975 46.174 99.395C46.8974 99.815 47.7374 100.025 48.694 100.025C50.6074 100.025 52.1007 99.1733 53.174 97.47L56.709 98.835C56.289 99.7917 55.6707 100.632 54.854 101.355C54.0607 102.055 53.1274 102.592 52.054 102.965C51.004 103.338 49.884 103.525 48.694 103.525ZM48.379 87.425C47.5624 87.425 46.8274 87.6117 46.174 87.985C45.544 88.3583 45.0074 88.8833 44.564 89.56C44.1207 90.2367 43.8174 91.03 43.654 91.94H52.894C52.754 91.03 52.4857 90.2367 52.089 89.56C51.6924 88.8833 51.1674 88.3583 50.514 87.985C49.884 87.6117 49.1724 87.425 48.379 87.425ZM60.526 103V84.695H64.201L64.341 87.215C64.8776 86.2817 65.6243 85.5467 66.581 85.01C67.561 84.45 68.681 84.17 69.941 84.17C71.3176 84.17 72.5076 84.4967 73.511 85.15C74.5376 85.8033 75.331 86.725 75.891 87.915C76.451 89.105 76.731 90.505 76.731 92.115V103H72.706V92.57C72.706 91.0767 72.3676 89.91 71.691 89.07C71.0376 88.23 70.116 87.81 68.926 87.81C68.086 87.81 67.3276 88.0083 66.651 88.405C65.9976 88.8017 65.4843 89.3383 65.111 90.015C64.7376 90.6917 64.551 91.4733 64.551 92.36V103H60.526ZM88.1153 103.525C86.2719 103.525 84.8253 103 83.7753 101.95C82.7253 100.877 82.2003 99.3483 82.2003 97.365V87.95H78.9803V84.695H82.2003V78.5H86.2253V84.695H91.5453V87.95H86.2253V96.945C86.2253 97.925 86.4236 98.6833 86.8203 99.22C87.2403 99.7333 87.8469 99.99 88.6403 99.99C89.0603 99.99 89.5153 99.9317 90.0053 99.815C90.4953 99.675 90.9503 99.4883 91.3703 99.255L92.2803 102.3C91.7436 102.673 91.1136 102.965 90.3903 103.175C89.6903 103.408 88.9319 103.525 88.1153 103.525ZM95.7376 103V78.15H100.008V88.23H112.153V78.15H116.423V103H112.153V92.045H100.008V103H95.7376ZM129.108 103.525C127.475 103.525 126.052 103.175 124.838 102.475C123.648 101.775 122.715 100.783 122.038 99.5C121.385 98.1933 121.058 96.665 121.058 94.915V84.695H125.083V94.985C125.083 96.5017 125.445 97.7033 126.168 98.59C126.892 99.4533 127.883 99.885 129.143 99.885C130.403 99.885 131.395 99.4533 132.118 98.59C132.842 97.7033 133.203 96.5017 133.203 94.985V84.695H137.228V94.915C137.228 96.6417 136.89 98.1583 136.213 99.465C135.56 100.748 134.627 101.752 133.413 102.475C132.2 103.175 130.765 103.525 129.108 103.525ZM141.566 103V76.96H145.591V87.355C146.244 86.3517 147.096 85.57 148.146 85.01C149.196 84.45 150.351 84.17 151.611 84.17C152.824 84.17 153.944 84.415 154.971 84.905C156.021 85.395 156.931 86.0717 157.701 86.935C158.471 87.7983 159.066 88.8133 159.486 89.98C159.929 91.1467 160.151 92.4067 160.151 93.76C160.151 95.1367 159.929 96.42 159.486 97.61C159.043 98.8 158.424 99.8383 157.631 100.725C156.838 101.612 155.904 102.3 154.831 102.79C153.781 103.28 152.638 103.525 151.401 103.525C150.118 103.525 148.951 103.245 147.901 102.685C146.874 102.125 146.046 101.332 145.416 100.305L145.241 103H141.566ZM150.771 99.885C151.774 99.885 152.673 99.6283 153.466 99.115C154.259 98.5783 154.878 97.855 155.321 96.945C155.788 96.035 156.021 94.9967 156.021 93.83C156.021 92.6633 155.788 91.6367 155.321 90.75C154.878 89.84 154.259 89.1283 153.466 88.615C152.673 88.0783 151.774 87.81 150.771 87.81C149.768 87.81 148.869 88.0783 148.076 88.615C147.283 89.1283 146.653 89.84 146.186 90.75C145.743 91.6367 145.521 92.6633 145.521 93.83C145.521 94.9967 145.743 96.035 146.186 96.945C146.653 97.855 147.283 98.5783 148.076 99.115C148.869 99.6283 149.768 99.885 150.771 99.885Z" fill="#37364A"/>
<path d="M96.4647 34.9356L96.5796 34.9931C99.2515 36.4871 100.286 39.8485 98.878 42.5491C93.9939 51.8863 84.1683 58.2644 72.8774 58.1782C57.1334 58.0633 44.2336 45.2497 44.0038 29.5057C43.7452 13.2445 56.8461 0 73.0785 0C82.2434 0 90.4314 4.25204 95.7464 10.8887L85.3462 16.5197C82.0135 13.2732 77.388 11.3196 72.3315 11.5207C63.0517 11.8942 55.5819 19.5651 55.467 28.8736C55.3521 38.6993 63.2816 46.6862 73.0498 46.6862C79.83 46.6862 85.7197 42.8651 88.6501 37.234C90.1441 34.4185 93.6779 33.3842 96.4647 34.9356Z" fill="#5669FF"/>
<path d="M98.9643 15.83C100.257 18.3583 99.3378 21.4611 96.8383 22.8401L90.4602 26.3739L74.6587 35.1366C72.188 36.5156 69.0851 35.8261 67.4188 33.5277L67.3613 33.4415C65.379 30.7122 66.2408 26.8336 69.2288 25.2247L85.375 16.4908L95.7753 10.8597C96.9819 12.4112 98.0449 14.0775 98.9643 15.83Z" fill="#00F8FF"/>
</svg>
